<?xml version="1.0" standalone="no"?>
<!DOCTYPE svg PUBLIC "-//W3C//DTD SVG 20010904//EN"
 "http://www.w3.org/TR/2001/REC-SVG-20010904/DTD/svg10.dtd">
<svg version="1.0" xmlns="http://www.w3.org/2000/svg"
 width="512.000000pt" height="512.000000pt" viewBox="0 0 512.000000 512.000000"
 preserveAspectRatio="xMidYMid meet">
<metadata>
Created by potrace 1.16, written by Peter Selinger 2001-2019
</metadata>
<g transform="translate(0.000000,512.000000) scale(0.100000,-0.100000)"
fill="#000000" stroke="none">
<path d="M3412 5044 c-22 -15 -22 -17 -22 -290 l0 -274 -78 0 c-54 0 -84 -5
-100 -16 l-22 -15 0 -405 0 -404 60 0 60 0 0 360 0 360 79 0 c59 0 84 4 95 16
14 13 16 58 16 334 0 318 0 319 -22 334 -12 9 -27 16 -33 16 -6 0 -21 -7 -33
-16z"/>
<path d="M1680 4968 c-58 -40 -75 -72 -75 -142 0 -53 4 -68 29 -100 15 -21 39
-42 51 -48 l24 -11 3 -266 c4 -322 -4 -301 170 -475 66 -66 127 -134 134 -152
8 -19 14 -56 14 -84 l0 -50 61 0 62 0 -7 78 c-10 110 -32 149 -165 282 -63 63
-123 129 -133 145 -16 27 -18 55 -18 277 l0 247 29 16 c100 51 100 216 1 282
-46 32 -134 32 -180 1z"/>
<path d="M3768 4809 c-17 -9 -18 -39 -18 -399 l0 -390 -168 0 c-117 0 -172 -4
-180 -12 -8 -8 -12 -65 -12 -190 l0 -178 55 0 55 0 0 135 0 135 168 0 c117 0
172 4 180 12 9 9 12 120 12 439 0 375 -2 429 -16 443 -18 18 -51 20 -76 5z"/>
<path d="M2269 4703 c-11 -13 -15 -114 -17 -540 l-3 -523 61 0 60 0 0 524 c0
464 -2 526 -16 540 -20 21 -68 20 -85 -1z"/>
<path d="M4002 4638 c-17 -17 -17 -569 0 -586 8 -8 50 -12 125 -12 l113 0 0
-325 0 -325 -180 0 -180 0 0 -55 0 -55 224 0 c191 0 227 2 240 16 14 13 16 65
16 419 0 354 -2 406 -16 419 -12 13 -39 16 -130 16 l-114 0 0 238 c0 172 -3
241 -12 250 -7 7 -26 12 -43 12 -17 0 -36 -5 -43 -12z"/>
<path d="M2762 4464 l-22 -15 0 -405 0 -404 60 0 61 0 -3 406 c-3 388 -4 406
-22 420 -25 18 -46 18 -74 -2z"/>
<path d="M2508 4199 c-16 -9 -18 -34 -18 -284 l0 -275 55 0 55 0 0 273 c0 199
-3 276 -12 285 -15 15 -57 15 -80 1z"/>
<path d="M3006 4194 c-14 -13 -16 -53 -16 -285 l0 -269 60 0 60 0 0 263 c0
221 -2 266 -16 285 -18 26 -65 30 -88 6z"/>
<path d="M1300 4077 c-73 -38 -108 -129 -79 -204 12 -33 68 -93 86 -93 10 0
13 -32 13 -143 0 -171 13 -227 67 -282 59 -60 101 -75 226 -75 l107 0 0 55 0
55 -80 0 c-98 0 -152 19 -180 65 -18 29 -20 49 -20 176 l1 144 31 20 c46 30
68 64 74 120 8 68 -25 130 -86 162 -55 29 -105 29 -160 0z"/>
<path d="M184 3780 c-46 -10 -89 -44 -108 -84 -24 -50 -21 -126 7 -166 39 -58
71 -75 142 -75 71 0 105 18 140 73 l20 31 118 1 c198 0 219 -19 228 -205 6
-134 21 -175 81 -232 65 -63 66 -63 508 -63 l400 0 0 55 0 55 -375 0 c-406 0
-416 1 -465 55 -23 25 -25 36 -30 153 -6 142 -22 186 -82 237 -58 49 -93 58
-244 63 l-141 4 -17 28 c-32 55 -115 86 -182 70z"/>
<path d="M1925 3535 c-50 -18 -91 -62 -105 -114 -7 -27 -10 -307 -8 -883 l3
-843 24 -38 c12 -21 41 -47 62 -57 38 -20 58 -20 908 -18 861 3 870 3 897 24
15 11 37 33 48 48 21 27 21 36 24 898 l2 870 -22 39 c-12 22 -38 50 -58 62
l-35 22 -850 2 c-714 2 -856 0 -890 -12z m1625 -975 l0 -750 -750 0 -750 0 0
750 0 750 750 0 750 0 0 -750z"/>
<path d="M2147 3213 c-4 -3 -7 -298 -7 -655 l0 -648 655 0 655 0 0 655 0 655
-648 0 c-357 0 -652 -3 -655 -7z"/>
<path d="M4567 3472 c-14 -15 -17 -42 -17 -160 l0 -142 -335 0 -335 0 0 -55 0
-55 379 0 380 0 15 22 c13 18 16 51 16 155 l0 133 203 0 c111 0 207 4 213 8
37 24 36 91 -1 106 -9 3 -126 6 -259 6 -223 0 -244 -2 -259 -18z"/>
<path d="M1166 2864 c-24 -23 -20 -70 6 -88 19 -14 64 -16 285 -16 l263 0 0
60 0 60 -269 0 c-232 0 -272 -2 -285 -16z"/>
<path d="M3880 2820 l0 -60 254 0 c140 0 266 4 279 9 32 12 43 55 22 87 l-15
24 -270 0 -270 0 0 -60z"/>
<path d="M4728 2716 c-20 -14 -42 -39 -49 -56 l-14 -30 -392 0 -393 0 0 -60 0
-60 393 0 392 0 28 -35 c41 -51 80 -68 144 -63 89 8 143 62 151 152 3 43 0 62
-18 93 -33 59 -65 77 -140 81 -56 3 -70 0 -102 -22z"/>
<path d="M896 2608 c-21 -30 -20 -54 4 -78 19 -19 33 -20 420 -20 l400 0 0 60
0 60 -404 0 -405 0 -15 -22z"/>
<path d="M1167 2362 c-22 -24 -21 -65 1 -85 16 -15 51 -17 285 -17 l267 0 0
60 0 60 -268 0 c-248 0 -270 -1 -285 -18z"/>
<path d="M3880 2320 l0 -60 265 0 c252 0 266 1 285 20 11 11 20 29 20 40 0 11
-9 29 -20 40 -19 19 -33 20 -285 20 l-265 0 0 -60z"/>
<path d="M1300 2090 c-400 -6 -386 -3 -458 -85 -66 -75 -66 -77 -59 -629 l7
-491 -32 -20 c-49 -31 -71 -68 -76 -129 -8 -103 60 -179 162 -179 102 0 166
64 166 164 0 64 -25 111 -77 144 l-32 20 -1 498 c0 551 -2 533 64 573 28 17
61 19 394 22 l362 4 0 59 0 59 -32 -2 c-18 -1 -193 -5 -388 -8z"/>
<path d="M3880 2040 l0 -60 180 0 180 0 0 -258 c0 -187 3 -261 12 -270 9 -9
103 -12 360 -12 l348 0 16 24 c13 22 14 29 2 53 l-13 28 -302 3 -302 2 -3 256
c-3 255 -3 256 -27 275 -21 17 -41 19 -237 19 l-214 0 0 -60z"/>
<path d="M1366 1835 c-47 -17 -94 -59 -112 -102 -20 -45 -20 -390 0 -436 17
-43 76 -93 123 -106 53 -15 195 -14 216 2 28 21 32 62 8 86 -18 18 -33 21
-109 21 -80 0 -91 2 -110 23 -21 22 -22 33 -22 193 0 226 -11 214 203 214
l157 0 0 60 0 60 -157 0 c-108 -1 -170 -5 -197 -15z"/>
<path d="M3880 1790 l0 -60 55 0 55 0 2 -472 3 -472 26 -15 c24 -13 29 -13 53
2 l26 17 0 515 0 514 -22 15 c-16 12 -47 16 -110 16 l-88 0 0 -60z"/>
<path d="M2030 1195 l0 -286 -25 -24 c-24 -25 -27 -25 -195 -25 -189 0 -220
-7 -278 -63 -18 -17 -37 -47 -42 -67 -13 -47 -13 -286 0 -311 7 -13 21 -19 45
-19 59 0 65 15 65 164 0 182 -8 176 211 176 90 0 182 5 204 11 51 14 110 73
124 124 7 25 11 147 11 323 l0 282 -60 0 -60 0 0 -285z"/>
<path d="M2250 1317 c0 -186 6 -207 65 -207 24 0 38 6 45 19 6 11 10 90 10
185 l0 166 -60 0 -60 0 0 -163z"/>
<path d="M2490 1210 l0 -270 25 -16 c25 -16 63 -12 77 10 4 6 8 131 8 279 l0
267 -55 0 -55 0 0 -270z"/>
<path d="M2740 1081 c0 -443 -1 -435 64 -429 55 5 56 14 56 441 l0 387 -60 0
-60 0 0 -399z"/>
<path d="M2990 1211 c0 -268 0 -270 22 -285 30 -21 54 -20 78 4 19 19 20 33
20 285 l0 265 -60 0 -60 0 0 -269z"/>
<path d="M3190 1296 c0 -203 2 -210 62 -204 51 5 58 29 58 221 l0 167 -60 0
-60 0 0 -184z"/>
<path d="M3390 1236 c0 -150 -4 -256 -11 -273 -6 -15 -43 -62 -83 -103 -105
-108 -110 -119 -114 -280 l-4 -135 -31 -20 c-55 -36 -72 -69 -72 -140 0 -71
17 -103 75 -142 46 -32 134 -32 180 0 99 66 99 222 1 280 l-31 18 0 116 c0
135 4 146 100 236 99 93 100 96 100 415 l0 272 -55 0 -55 0 0 -244z"/>
</g>
</svg>
